<svg xmlns="http://www.w3.org/2000/svg" viewBox="0 0 24 24"><circle cx="12" cy="12" r="10" fill="#F38020"/><path d="M14.5 12h-.5c-.3 0-.6.1-.9.2-.2.1-.4.3-.6.5-.1.2-.2.5-.2.7 0 .3.1.6.2.8.2.2.4.4.6.5.3.1.6.2.9.2.3 0 .6-.1.8-.2.2-.1.4-.3.6-.5.1-.2.2-.5.2-.8 0-.3-.1-.6-.2-.8-.2-.2-.4-.4-.6-.5-.3-.1-.5-.2-.8-.2h-.3zm-2-2c-.3 0-.6.1-.8.2-.2.1-.4.3-.6.5-.1.2-.2.5-.2.7 0 .3.1.6.2.8.2.2.4.4.6.5.3.1.6.2.8.2.3 0 .6-.1.8-.2.2-.1.4-.3.6-.5.1-.2.2-.5.2-.8 0-.3-.1-.6-.2-.8-.2-.2-.4-.4-.6-.5-.3-.1-.5-.2-.8-.2z" fill="white"/></svg>
