<svg xmlns="http://www.w3.org/2000/svg" viewBox="0 0 24 24"><circle cx="12" cy="12" r="10" fill="#FF2D20"/><path d="M12 5c.9.4 1.7 1 2.3 1.8 1.1 1.4 1.5 3.2 1.4 5-.1 1-.3 2-.7 2.9-.3.5-.6 1-1 1.4-.4.4-.8.7-1.3 1-.5.2-1 .3-1.5.3-.7 0-1.4-.2-2-.6-.7-.5-1.2-1.2-1.5-2-.3-.8-.3-1.6-.1-2.4.2-.7.5-1.4 1-2 .2-.3.5-.5.8-.7.1-.1.2-.1.3 0 .1.1 0 .2 0 .3-.1.2-.2.3-.3.5-.2.5-.3 1-.2 1.5.1.5.3 1 .7 1.4.4.3.9.5 1.4.5.5 0 1-.1 1.4-.4.4-.3.8-.7 1-1.2.2-.5.3-1 .3-1.5 0-.9-.3-1.7-.8-2.4-.5-.7-1.1-1.2-1.9-1.5-.8-.3-1.5-.3-2.2-.1-.2.1-.4.1-.5.2 0 0 0-.2.1-.3.1-.1.3-.3.5-.4.6-.2 1.3-.3 2-.2.6.1 1.2.3 1.8.7z" fill="#FF2D20"/><path d="M12 7c.4.2.8.5 1.1.9.7.9.9 2.1.8 3.2-.1.8-.3 1.5-.6 2.2-.2.3-.4.6-.7.8-.3.2-.6.3-1 .3-.6 0-1.1-.2-1.5-.6-.4-.4-.6-.9-.7-1.5-.1-.6 0-1.1.1-1.6.1-.5.3-.9.6-1.3.2-.2.3-.4.5-.5.2-.1.3-.1.4 0 .1.1 0 .2 0 .3-.1.2-.2.4-.2.6-.2.5-.2 1-.1 1.5.1.5.3.9.6 1.2.3.3.7.4 1.1.4.4 0 .8-.2 1.1-.5.3-.3.5-.7.6-1.1.1-.4.1-.9 0-1.3-.1-.4-.3-.8-.5-1.1-.2-.3-.5-.5-.8-.7-.3-.2-.6-.3-.8-.3-.4 0-.7.1-1 .3-.2.1-.3.2-.4.3 0 0 0-.1.1-.2.1-.1.2-.2.4-.3.4-.2.8-.3 1.2-.2.4.1.8.3 1.1.5" fill="#FF2D20"/></svg>
