<svg xmlns="http://www.w3.org/2000/svg" viewBox="0 0 24 24"><path d="M12 2C6.48 2 2 6.48 2 12s4.48 10 10 10 10-4.48 10-10S17.52 2 12 2z" fill="#06B6D4"/><path d="M9.5 8.5c-.5 0-1 .2-1.4.6-.4.4-.6.9-.7 1.5-.1.6 0 1.1.1 1.5.1.4.3.7.6.9.3.2.6.3.9.3.4 0 .7-.1 1-.3.3-.2.5-.4.7-.7.2-.3.3-.5.3-.7l-1-.2c0 .2-.1.4-.2.5-.1.1-.3.2-.5.2-.3 0-.5-.1-.7-.3-.2-.2-.3-.5-.4-.8 0-.3 0-.6.1-.8.1-.2.2-.4.4-.5.2-.1.4-.2.6-.2.3 0 .5.1.6.3.1.2.2.4.3.6l1-.3c-.1-.5-.3-.9-.6-1.2-.3-.3-.7-.4-1.2-.4h-.2z" fill="white"/><circle cx="12" cy="12" r="2.5" fill="white"/></svg>
